<svg width="30" height="30" viewBox="0 0 30 30" fill="none" xmlns="http://www.w3.org/2000/svg">
<circle cx="15" cy="15" r="15" fill="#FFCD29"/>
<path d="M18.6364 10.5128C17.6323 10.5128 16.8182 9.65183 16.8182 8.58974C16.8182 7.52766 17.6323 6.66667 18.6364 6.66667C19.6405 6.66667 20.4546 7.52766 20.4546 8.58974C20.4546 9.65183 19.6405 10.5128 18.6364 10.5128Z" stroke="white" stroke-width="2.25" stroke-linecap="round" stroke-linejoin="round"/>
<path d="M16.2121 12.7564L14.2135 15.3402C13.8051 15.8681 13.859 16.6418 14.3362 17.1007L16.4214 19.1056C16.6741 19.3487 16.8182 19.6931 16.8182 20.0544V23.3333" stroke="white" stroke-width="2.25" stroke-linecap="round" stroke-linejoin="round"/>
<path d="M12.5758 18.5256L12.2193 19.6571C11.8893 20.704 10.9629 21.4103 9.91941 21.4103H8.33337" stroke="white" stroke-width="2.25" stroke-linecap="round" stroke-linejoin="round"/>
<path d="M21.6666 15H19.0917C18.7982 15 18.5145 14.8873 18.2936 14.6828L15.2667 11.8815C14.4046 11.0836 13.1322 11.0329 12.2158 11.7599L10.1515 13.3974" stroke="white" stroke-width="2.25" stroke-linecap="round" stroke-linejoin="round"/>
</svg>
