<svg width="25" height="25" viewBox="0 0 25 25" fill="none" xmlns="http://www.w3.org/2000/svg">
<path fill-rule="evenodd" clip-rule="evenodd" d="M0 12.491C0 11.3864 0.799491 10.491 1.78571 10.491H23.2143C24.2005 10.491 25 11.3864 25 12.491C25 13.5955 24.2005 14.491 23.2143 14.491H1.78571C0.799491 14.491 0 13.5955 0 12.491Z" fill="#FFCD29"/>
<path fill-rule="evenodd" clip-rule="evenodd" d="M12.509 -8.74228e-08C13.6136 -3.91409e-08 14.509 0.799491 14.509 1.78571L14.509 23.2143C14.509 24.2005 13.6136 25 12.509 25C11.4045 25 10.509 24.2005 10.509 23.2143L10.509 1.78571C10.509 0.799491 11.4045 -1.35705e-07 12.509 -8.74228e-08Z" fill="#FFCD29"/>
</svg>
