<svg width="24" height="24" viewBox="0 0 24 24" fill="none" xmlns="http://www.w3.org/2000/svg">
<path d="M5.46154 15.4616C7.37329 15.4616 8.92308 13.9118 8.92308 12C8.92308 10.0883 7.37329 8.53848 5.46154 8.53848C3.54978 8.53848 2 10.0883 2 12C2 13.9118 3.54978 15.4616 5.46154 15.4616Z" stroke="#004D40" stroke-width="1.71" stroke-linecap="round" stroke-linejoin="round"/>
<path d="M18.5384 22C20.4501 22 22 20.4502 22 18.5385C22 16.6268 20.4501 15.0769 18.5384 15.0769C16.6268 15.0769 15.0769 16.6268 15.0769 18.5385C15.0769 20.4502 16.6268 22 18.5384 22Z" stroke="#004D40" stroke-width="1.71" stroke-linecap="round" stroke-linejoin="round"/>
<path d="M18.5384 8.92309C20.4501 8.92309 22 7.37331 22 5.46155C22 3.5498 20.4501 2.00002 18.5384 2.00002C16.6268 2.00002 15.0769 3.5498 15.0769 5.46155C15.0769 7.37331 16.6268 8.92309 18.5384 8.92309Z" stroke="#004D40" stroke-width="1.71" stroke-linecap="round" stroke-linejoin="round"/>
<path d="M8.55386 10.4616L15.4462 7.00002" stroke="#004D40" stroke-width="1.71" stroke-linecap="round" stroke-linejoin="round"/>
<path d="M8.55386 13.5385L15.4462 17" stroke="#004D40" stroke-width="1.71" stroke-linecap="round" stroke-linejoin="round"/>
</svg>
