<svg width="24" height="24" viewBox="0 0 24 24" fill="none" xmlns="http://www.w3.org/2000/svg">
<path d="M2.99997 22V2.96827C3.00021 2.90101 3.01925 2.83494 3.05515 2.77674C3.09104 2.7185 3.14257 2.67019 3.20451 2.63654C3.60391 2.41635 4.68338 2 7.09088 2C10.3636 2 14.5057 4.30769 16.9091 4.30769C18.266 4.3044 19.6086 4.04661 20.8583 3.5495C20.8738 3.54341 20.8908 3.54103 20.9076 3.54254C20.9243 3.54409 20.9405 3.5495 20.9545 3.55829C20.9685 3.56708 20.98 3.57903 20.988 3.59299C20.9959 3.60701 21 3.62262 21 3.63846V14.1846C20.9999 14.2218 20.9882 14.2583 20.9665 14.2894C20.9448 14.3205 20.914 14.3451 20.8777 14.3601C20.4564 14.5337 18.9714 15.077 16.9091 15.077C14.4545 15.077 10.3636 13.5384 7.09088 13.5384C3.81815 13.5384 2.99997 14.3077 2.99997 14.3077" stroke="#004D40" stroke-width="2" stroke-miterlimit="10" stroke-linecap="round"/>
</svg>
