<svg width="26" height="26" viewBox="0 0 26 26" fill="none" xmlns="http://www.w3.org/2000/svg">
<path d="M24.6476 22.9498C25.3011 23.6033 25.0021 24.7192 24.1095 24.9584C23.6952 25.0694 23.2531 24.9509 22.9498 24.6476L13 14.6963L3.05017 24.6476C2.39669 25.3011 1.28083 25.0021 1.04164 24.1095C0.93064 23.6952 1.04908 23.2531 1.35237 22.9498L11.3037 13L1.35237 3.05017C0.698882 2.39669 0.997868 1.28083 1.89054 1.04164C2.30484 0.93064 2.74688 1.04908 3.05017 1.35237L13 11.3037L22.9498 1.35237C23.6033 0.698882 24.7192 0.997868 24.9584 1.89054C25.0694 2.30484 24.9509 2.74689 24.6476 3.05017L14.6963 13L24.6476 22.9498Z" fill="black" stroke="black" stroke-width="0.2"/>
</svg>
