<svg width="24" height="24" viewBox="0 0 24 24" fill="none" xmlns="http://www.w3.org/2000/svg">
<path d="M9.18371 4.69231L9.86834 2.98462C9.9838 2.69548 10.1869 2.44679 10.4511 2.2711C10.7154 2.09541 11.0283 2.00092 11.349 2H12.6546C12.9753 2.00092 13.2883 2.09541 13.5525 2.2711C13.8167 2.44679 14.0198 2.69548 14.1353 2.98462L14.8199 4.69231L17.1444 5.98462L19.0231 5.70769C19.336 5.66666 19.6544 5.71642 19.9379 5.85065C20.2213 5.98488 20.4571 6.19751 20.6152 6.46154L21.2521 7.53846C21.4153 7.80669 21.4906 8.11643 21.4678 8.4268C21.4451 8.73717 21.3255 9.03358 21.1247 9.27692L19.9625 10.7077V13.2923L21.1566 14.7231C21.3573 14.9664 21.4769 15.2628 21.4997 15.5732C21.5224 15.8836 21.4471 16.1933 21.2839 16.4615L20.6471 17.5385C20.489 17.8025 20.2532 18.0151 19.9698 18.1494C19.6862 18.2835 19.3678 18.3334 19.0549 18.2923L17.1762 18.0154L14.8517 19.3077L14.1671 21.0154C14.0517 21.3045 13.8485 21.5532 13.5843 21.7289C13.3201 21.9046 13.0072 21.9991 12.6864 22H11.349C11.0283 21.9991 10.7154 21.9046 10.4511 21.7289C10.1869 21.5532 9.9838 21.3045 9.86834 21.0154L9.18371 19.3077L6.85919 18.0154L4.98046 18.2923C4.66763 18.3334 4.34924 18.2835 4.06574 18.1494C3.78226 18.0151 3.54646 17.8025 3.38831 17.5385L2.75146 16.4615C2.58826 16.1933 2.51308 15.8836 2.53582 15.5732C2.55855 15.2628 2.67816 14.9664 2.87883 14.7231L4.04109 13.2923V10.7077L2.84699 9.27692C2.64631 9.03358 2.52671 8.73717 2.50397 8.4268C2.48124 8.11643 2.55642 7.80669 2.71961 7.53846L3.35647 6.46154C3.51462 6.19751 3.75042 5.98488 4.0339 5.85065C4.31739 5.71642 4.63579 5.66666 4.94861 5.70769L6.82734 5.98462L9.18371 4.69231ZM8.81752 12C8.81752 12.6086 9.00428 13.2034 9.35417 13.7094C9.70408 14.2154 10.2014 14.6098 10.7832 14.8427C11.3651 15.0756 12.0053 15.1365 12.623 15.0178C13.2407 14.8991 13.8081 14.606 14.2534 14.1757C14.6988 13.7454 15.002 13.1971 15.1249 12.6003C15.2478 12.0034 15.1847 11.3848 14.9437 10.8225C14.7027 10.2603 14.2946 9.77972 13.7709 9.44163C13.2472 9.10354 12.6316 8.92308 12.0018 8.92308C11.1573 8.92308 10.3473 9.24725 9.75018 9.82429C9.15302 10.4013 8.81752 11.184 8.81752 12Z" stroke="#004D40" stroke-width="1.71" stroke-linecap="round" stroke-linejoin="round"/>
</svg>
