<svg width="24" height="24" viewBox="0 0 24 24" fill="none" xmlns="http://www.w3.org/2000/svg">
<path fill-rule="evenodd" clip-rule="evenodd" d="M12 4.1962C7.6901 4.1962 4.19621 7.69011 4.19621 12.0001C4.19621 13.575 4.66182 15.0386 5.46276 16.2639C5.64196 16.4895 5.70161 16.8008 5.59286 17.0903L4.66777 19.5515L8.0485 18.9402L8.05553 18.939C8.26895 18.9003 8.47817 18.9452 8.64959 19.0504C9.66379 19.5333 10.7992 19.8039 12 19.8039C16.3099 19.8039 19.8038 16.31 19.8038 12.0001C19.8038 7.69011 16.3099 4.1962 12 4.1962ZM8.08354 20.6576C9.27864 21.199 10.6052 21.5001 12 21.5001C17.2467 21.5001 21.5 17.2469 21.5 12.0001C21.5 6.75334 17.2467 2.5 12 2.5C6.75331 2.5 2.50001 6.75334 2.50001 12.0001C2.50001 13.7883 2.99483 15.463 3.85513 16.8926L2.55424 20.3536C2.44684 20.6394 2.50128 20.9607 2.69677 21.1952C2.89226 21.4296 3.19865 21.541 3.49902 21.4866L8.08354 20.6576Z" fill="#004D40"/>
</svg>
