<svg width="24" height="24" viewBox="0 0 24 24" fill="none" xmlns="http://www.w3.org/2000/svg">
<path d="M4.49995 4.5C4.49995 4.8283 4.56462 5.15339 4.69026 5.45671C4.81589 5.76002 5.00004 6.03562 5.23219 6.26777C5.46433 6.49991 5.73993 6.68406 6.04325 6.8097C6.34656 6.93534 6.67165 7 6.99995 7C7.32826 7 7.65335 6.93534 7.95666 6.8097C8.25998 6.68406 8.53557 6.49991 8.76772 6.26777C8.99987 6.03562 9.18402 5.76002 9.30965 5.45671C9.43529 5.15339 9.49995 4.8283 9.49995 4.5C9.49995 4.1717 9.43529 3.84661 9.30965 3.54329C9.18402 3.23998 8.99987 2.96438 8.76772 2.73223C8.53557 2.50009 8.25998 2.31594 7.95666 2.1903C7.65335 2.06466 7.32826 2 6.99995 2C6.67165 2 6.34656 2.06466 6.04325 2.1903C5.73993 2.31594 5.46433 2.50009 5.23219 2.73223C5.00004 2.96438 4.81589 3.23998 4.69026 3.54329C4.56462 3.84661 4.49995 4.1717 4.49995 4.5Z" stroke="#004D40" stroke-width="2" stroke-linecap="round" stroke-linejoin="round"/>
<path d="M1.99994 14.5C1.99994 11.7386 4.23852 9.5 6.99994 9.5" stroke="#004D40" stroke-width="2" stroke-linecap="round" stroke-linejoin="round"/>
<path d="M21.9999 14.5C21.9999 11.7386 19.7614 9.5 16.9999 9.5" stroke="#004D40" stroke-width="2" stroke-linecap="round" stroke-linejoin="round"/>
<path d="M14.4999 4.5C14.4999 4.8283 14.5646 5.15339 14.6902 5.45671C14.8158 5.76002 15 6.03562 15.2321 6.26777C15.4643 6.49991 15.7399 6.68406 16.0432 6.8097C16.3465 6.93534 16.6716 7 16.9999 7C17.3282 7 17.6533 6.93534 17.9566 6.8097C18.2599 6.68406 18.5355 6.49991 18.7677 6.26777C18.9998 6.03562 19.184 5.76002 19.3096 5.45671C19.4352 5.15339 19.4999 4.8283 19.4999 4.5C19.4999 3.83696 19.2365 3.20107 18.7677 2.73223C18.2988 2.26339 17.6629 2 16.9999 2C16.3369 2 15.701 2.26339 15.2321 2.73223C14.7633 3.20107 14.4999 3.83696 14.4999 4.5Z" stroke="#004D40" stroke-width="2" stroke-linecap="round" stroke-linejoin="round"/>
<path d="M17 22C17 19.2385 14.7614 17 12 17C9.23855 17 6.99997 19.2385 6.99997 22" stroke="#004D40" stroke-width="2" stroke-linecap="round" stroke-linejoin="round"/>
<path d="M9.49998 12C9.49998 12.663 9.76338 13.2989 10.2322 13.7678C10.7011 14.2366 11.3369 14.5 12 14.5C12.663 14.5 13.2989 14.2366 13.7678 13.7678C14.2366 13.2989 14.5 12.663 14.5 12C14.5 11.337 14.2366 10.7011 13.7678 10.2322C13.2989 9.76339 12.663 9.5 12 9.5C11.3369 9.5 10.7011 9.76339 10.2322 10.2322C9.76338 10.7011 9.49998 11.337 9.49998 12Z" stroke="#004D40" stroke-width="2" stroke-linecap="round" stroke-linejoin="round"/>
</svg>
