<svg width="24" height="24" viewBox="0 0 24 24" fill="none" xmlns="http://www.w3.org/2000/svg">
<path fill-rule="evenodd" clip-rule="evenodd" d="M22 8.98343C21.9659 6.66511 20.637 4.38197 18.597 3.44116C17.5007 2.93415 16.2497 2.86127 15.1007 3.23746C14.0563 3.56572 13.0089 4.23835 12 5.2964C10.9911 4.23835 9.9437 3.56718 8.89926 3.23746C7.75029 2.86127 6.49935 2.93415 5.40296 3.44116C3.36296 4.38197 2.03407 6.66511 2 8.98343V8.99516C2 12.3759 4.03259 15.3713 6.18667 17.4742C7.16471 18.4353 8.24964 19.2839 9.42074 20.0035C9.92148 20.3039 10.3941 20.5457 10.8133 20.7157C11.2148 20.8769 11.6326 21 12 21C12.3674 21 12.7852 20.8769 13.1852 20.7157C13.6059 20.5472 14.0785 20.3054 14.5778 20.0035C15.7494 19.2839 16.8348 18.4354 17.8133 17.4742C19.9674 15.3713 22 12.3759 22 8.99662V8.9849V8.98343Z" fill="#004D40"/>
</svg>
