<svg width="24" height="24" viewBox="0 0 24 24" fill="none" xmlns="http://www.w3.org/2000/svg">
<path d="M2 22L11.7561 10.2927L22 22" stroke="#004D40" stroke-width="2" stroke-linecap="round"/>
<path d="M11.7561 10.2927V6.87805M11.7561 6.87805V2.2C11.7561 2.08954 11.8456 2 11.9561 2H18.3854C18.4958 2 18.5854 2.08954 18.5854 2.2V6.67805C18.5854 6.78851 18.4958 6.87805 18.3854 6.87805H11.7561Z" stroke="#004D40" stroke-width="2"/>
<path d="M6.87805 15.1707L9.66346 17.9561C9.74156 18.0342 9.8682 18.0342 9.9463 17.9561L11.6147 16.2878C11.6928 16.2097 11.8194 16.2097 11.8975 16.2878L13.5659 17.9561C13.644 18.0342 13.7706 18.0342 13.8487 17.9561L16.6342 15.1707" stroke="#004D40" stroke-width="2"/>
</svg>
