<svg width="24" height="24" viewBox="0 0 24 24" fill="none" xmlns="http://www.w3.org/2000/svg">
<g clip-path="url(#clip0_1543_11451)">
<path d="M9.77777 11.6667C9.77777 12.256 10.0119 12.8213 10.4286 13.238C10.8454 13.6548 11.4106 13.8889 12 13.8889C12.5894 13.8889 13.1546 13.6548 13.5713 13.238C13.9881 12.8213 14.2222 12.256 14.2222 11.6667C14.2222 11.0773 13.9881 10.5121 13.5713 10.0953C13.1546 9.67858 12.5894 9.44446 12 9.44446C11.4106 9.44446 10.8454 9.67858 10.4286 10.0953C10.0119 10.5121 9.77777 11.0773 9.77777 11.6667Z" stroke="#004D40" stroke-width="2" stroke-linecap="round" stroke-linejoin="round"/>
<path d="M22 11.6667C19.3333 16.1111 16 18.3333 12 18.3333C8 18.3333 4.66667 16.1111 2 11.6667C4.66667 7.22222 8 5 12 5C16 5 19.3333 7.22222 22 11.6667Z" stroke="#004D40" stroke-width="2" stroke-linecap="round" stroke-linejoin="round"/>
</g>
<defs>
<clipPath id="clip0_1543_11451">
<rect width="24" height="24" fill="white"/>
</clipPath>
</defs>
</svg>
