<svg width="24" height="24" viewBox="0 0 24 24" fill="none" xmlns="http://www.w3.org/2000/svg">
<path fill-rule="evenodd" clip-rule="evenodd" d="M10.3518 2L11.6005 2.72657C13.1842 3.63448 14.4008 5.03954 15.0491 6.70927C15.2691 6.22874 15.5307 5.76261 15.7735 5.29169L16.7457 6.2345C18.9278 8.35079 21 11.5223 21 14.6026C21 18.7333 18.3739 21.3522 14.1721 21.8049L12.7946 21.9529L13.0959 20.641C13.3307 19.6146 13.3733 18.9438 13.3238 18.4738C13.2643 17.8827 12.975 17.4185 12.6142 16.9572C12.2694 16.5151 11.9275 16.0721 11.654 15.5829C10.5292 16.445 10.0932 17.2234 9.95343 17.8645C9.77505 18.6852 10.0278 19.5243 10.4896 20.42L11.3041 22L9.4946 21.8049C6.94181 21.53 4.42667 19.876 3.43568 17.4628C2.40009 14.938 3.13244 11.8827 6.47802 9.07064C8.69784 7.20519 9.87316 4.78616 10.3518 2ZM11.6718 5.17155C10.9167 7.22825 9.46685 9.10235 7.77523 10.5238C4.89045 12.9486 4.63181 15.1792 5.27793 16.7516C5.75856 17.9241 6.79613 18.888 8.02595 19.4349C7.88227 18.7872 7.87822 18.1178 8.01406 17.4685C8.33712 15.9827 9.4391 14.5901 11.5559 13.3071L12.6232 12.6603L13.0215 13.8184C13.3704 14.8333 14.0938 15.5512 14.6596 16.4421C15.282 17.4224 15.4009 18.5469 15.2741 19.6694C17.8705 19.0399 19.018 17.1302 19.018 14.6026C19.018 12.4671 17.6901 10.3719 16.3721 8.73426C15.829 9.91446 14.6844 10.3296 13.5676 10.8717V9.31667C13.5676 8.00096 13.0156 6.39692 11.6718 5.17251V5.17155Z" fill="#FF3819"/>
</svg>
