<svg width="24" height="24" viewBox="0 0 24 24" fill="none" xmlns="http://www.w3.org/2000/svg">
<path fill-rule="evenodd" clip-rule="evenodd" d="M12.6858 7.09577C13.7054 5.86295 14.6842 5.22388 15.5353 4.95765C16.376 4.69471 17.1454 4.77733 17.8106 5.08276C19.1767 5.71 20.1857 7.33058 20.2143 9.06105C20.2114 11.7328 18.5733 14.2716 16.5864 16.2043C15.6057 17.1585 14.5764 17.9282 13.7006 18.4539C13.2624 18.717 12.8745 18.912 12.5604 19.0383C12.2243 19.1733 12.0457 19.2 12 19.2C11.9543 19.2 11.7757 19.1733 11.4396 19.0383C11.1254 18.912 10.7375 18.717 10.2993 18.4539C9.42357 17.9282 8.39423 17.1585 7.4135 16.2045C5.42674 14.2718 3.78853 11.733 3.78571 9.0613C3.81421 7.33083 4.82329 5.71018 6.18943 5.08288C6.85464 4.77742 7.62407 4.69476 8.46469 4.9577C9.31577 5.22391 10.2946 5.86295 11.3142 7.09577C11.4839 7.30087 11.7351 7.41946 12 7.41946C12.2649 7.41946 12.5161 7.30087 12.6858 7.09577ZM21.9999 9.04055C21.9647 6.69869 20.6211 4.39527 18.5509 3.44467C17.4969 2.96078 16.276 2.84127 15.0061 3.23851C13.9879 3.55701 12.9746 4.19542 12 5.18243C11.0254 4.19544 10.0121 3.55702 8.9939 3.23854C7.72396 2.84133 6.50307 2.96088 5.44917 3.44482C3.37882 4.39547 2.03523 6.69893 2.0001 9.0408L2 9.05441C2 12.4465 4.04366 15.4279 6.17346 17.4998C7.25187 18.5488 8.39049 19.403 9.38556 20.0005C9.88277 20.299 10.356 20.5405 10.7779 20.7101C11.1779 20.871 11.6104 21 12 21C12.3896 21 12.8221 20.871 13.2221 20.7101C13.644 20.5405 14.1172 20.299 14.6144 20.0003C15.6095 19.403 16.7481 18.5487 17.8266 17.4996C19.9563 15.4276 22 12.4462 22 9.05416L21.9999 9.04055Z" fill="#004D40"/>
</svg>
