<svg width="24" height="24" viewBox="0 0 24 24" fill="none" xmlns="http://www.w3.org/2000/svg">
<path d="M16.3638 6.61538C15.1588 6.61538 14.1819 5.5822 14.1819 4.30769C14.1819 3.03318 15.1588 2 16.3638 2C17.5687 2 18.5456 3.03318 18.5456 4.30769C18.5456 5.5822 17.5687 6.61538 16.3638 6.61538Z" stroke="#004D40" stroke-width="2" stroke-linecap="round" stroke-linejoin="round"/>
<path d="M13.4545 9.30768L11.0561 12.4082C10.566 13.0417 10.6308 13.9702 11.2034 14.5208L13.7057 16.9268C14.0089 17.2184 14.1818 17.6317 14.1818 18.0652V22" stroke="#004D40" stroke-width="2" stroke-linecap="round" stroke-linejoin="round"/>
<path d="M9.09097 16.2308L8.66312 17.5885C8.26714 18.8448 7.15546 19.6923 5.9033 19.6923H4.00006" stroke="#004D40" stroke-width="2" stroke-linecap="round" stroke-linejoin="round"/>
<path d="M20 12H16.9101C16.5578 12 16.2175 11.8647 15.9523 11.6193L12.3201 8.25777C11.2856 7.30036 9.75865 7.2395 8.65896 8.11185L6.18179 10.0769" stroke="#004D40" stroke-width="2" stroke-linecap="round" stroke-linejoin="round"/>
</svg>
