<svg width="24" height="24" viewBox="0 0 24 24" fill="none" xmlns="http://www.w3.org/2000/svg">
<path d="M9.75 4.22222C9.75 3.63285 9.98705 3.06762 10.409 2.65087C10.831 2.23413 11.4033 2 12 2C12.5967 2 13.169 2.23413 13.591 2.65087C14.0129 3.06762 14.25 3.63285 14.25 4.22222C15.542 4.82559 16.6433 5.76481 17.4361 6.93922C18.2288 8.11364 18.683 9.47897 18.75 10.8889V14.2222C18.8347 14.913 19.0824 15.5745 19.4732 16.1535C19.864 16.7324 20.3869 17.2127 21 17.5556H3C3.61306 17.2127 4.13604 16.7324 4.52684 16.1535C4.91764 15.5745 5.16534 14.913 5.25 14.2222V10.8889C5.31701 9.47897 5.77121 8.11364 6.56394 6.93922C7.35667 5.76481 8.45804 4.82559 9.75 4.22222Z" stroke="#004D40" stroke-width="2" stroke-linecap="round" stroke-linejoin="round"/>
<path d="M8.625 17.5556V18.6667C8.625 19.5507 8.98058 20.3986 9.61351 21.0237C10.2464 21.6488 11.1049 22 12 22C12.8951 22 13.7535 21.6488 14.3865 21.0237C15.0194 20.3986 15.375 19.5507 15.375 18.6667V17.5556" stroke="#004D40" stroke-width="2" stroke-linecap="round" stroke-linejoin="round"/>
<circle cx="19" cy="5" r="4" fill="#FFCD29" stroke="white" stroke-width="2"/>
</svg>
