<svg width="156" height="66" viewBox="0 0 156 66" fill="none" xmlns="http://www.w3.org/2000/svg">
<path d="M124.372 10H144.24V19.16H136.287V27.8394H143.73V36.547H136.287V46.6117H145.032V55.7717H124.372V10Z" fill="white"/>
<path d="M123.723 10L116.913 30.6665L124.373 55.7717H112.081L107.277 36.1512V55.7717H95.3802V21.6077H107.277V27.7828L112.561 10H123.723Z" fill="white"/>
<path d="M85.7774 10V46.6117H97.777V55.7717H73.9209V10H85.7774Z" fill="white"/>
<path d="M25.6253 26.7273V10C12.3494 10 12.511 17.368 12.5108 23.2424C12.5095 32.5021 15.3917 36.0866 20.2593 37.6796L34.769 38.8744L34.769 56C50.4696 54.7056 47.2897 48.7316 47.5863 37.6796C47.8175 29.0621 40.9284 26.7936 37.2517 26.7273H25.6253Z" fill="white"/>
<rect x="24.6099" y="10" width="50.1091" height="9.93051" fill="white"/>
<rect x="50.293" y="19.1318" width="12.8982" height="36.1836" fill="white"/>
<rect x="10" y="46.6401" width="23.6278" height="1.94044" fill="#FFBF00"/>
<rect x="95.2992" y="10" width="11.7836" height="1.93462" fill="#FFBF00"/>
<rect x="10" y="50.407" width="23.6278" height="1.8263" fill="#FFBF00"/>
<rect x="95.2992" y="13.6934" width="11.7836" height="1.93462" fill="#FFBF00"/>
<rect x="10" y="54.0596" width="23.6278" height="1.94044" fill="#FFBF00"/>
<rect x="95.2992" y="17.3867" width="11.7836" height="1.93462" fill="#FFBF00"/>
</svg>
