<svg width="54" height="33" viewBox="0 0 54 33" fill="none" xmlns="http://www.w3.org/2000/svg">
<path d="M8.04894 10.4271C8.3483 9.50574 9.6517 9.50574 9.95106 10.4271L10.7961 13.0279C10.93 13.4399 11.3139 13.7188 11.7472 13.7188H14.4818C15.4505 13.7188 15.8533 14.9585 15.0696 15.5279L12.8572 17.1353C12.5067 17.3899 12.3601 17.8413 12.494 18.2533L13.339 20.8541C13.6384 21.7754 12.5839 22.5415 11.8002 21.9721L9.58779 20.3647C9.2373 20.1101 8.7627 20.1101 8.41221 20.3647L6.19983 21.9721C5.41612 22.5415 4.36164 21.7754 4.66099 20.8541L5.50604 18.2533C5.63992 17.8413 5.49326 17.3899 5.14277 17.1353L2.93039 15.5279C2.14668 14.9585 2.54945 13.7188 3.51818 13.7188H6.25283C6.68606 13.7188 7.07001 13.4399 7.20389 13.0279L8.04894 10.4271Z" fill="#FFCD29"/>
<path d="M26.0489 10.4271C26.3483 9.50574 27.6517 9.50574 27.9511 10.4271L28.7961 13.0279C28.93 13.4399 29.3139 13.7188 29.7472 13.7188H32.4818C33.4505 13.7188 33.8533 14.9585 33.0696 15.5279L30.8572 17.1353C30.5067 17.3899 30.3601 17.8413 30.494 18.2533L31.339 20.8541C31.6384 21.7754 30.5839 22.5415 29.8002 21.9721L27.5878 20.3647C27.2373 20.1101 26.7627 20.1101 26.4122 20.3647L24.1998 21.9721C23.4161 22.5415 22.3616 21.7754 22.661 20.8541L23.506 18.2533C23.6399 17.8413 23.4933 17.3899 23.1428 17.1353L20.9304 15.5279C20.1467 14.9585 20.5495 13.7188 21.5182 13.7188H24.2528C24.6861 13.7188 25.07 13.4399 25.2039 13.0279L26.0489 10.4271Z" fill="#FFCD29"/>
<path d="M44.0489 10.4271C44.3483 9.50574 45.6517 9.50574 45.9511 10.4271L46.7961 13.0279C46.93 13.4399 47.3139 13.7188 47.7472 13.7188H50.4818C51.4505 13.7188 51.8533 14.9585 51.0696 15.5279L48.8572 17.1353C48.5067 17.3899 48.3601 17.8413 48.494 18.2533L49.339 20.8541C49.6384 21.7754 48.5839 22.5415 47.8002 21.9721L45.5878 20.3647C45.2373 20.1101 44.7627 20.1101 44.4122 20.3647L42.1998 21.9721C41.4161 22.5415 40.3616 21.7754 40.661 20.8541L41.506 18.2533C41.6399 17.8413 41.4933 17.3899 41.1428 17.1353L38.9304 15.5279C38.1467 14.9585 38.5495 13.7188 39.5182 13.7188H42.2528C42.6861 13.7188 43.07 13.4399 43.2039 13.0279L44.0489 10.4271Z" fill="#D9D9D9"/>
</svg>
